<svg xmlns="http://www.w3.org/2000/svg" width="926" height="584.958" viewBox="0 0 926 584.958"><g data-name="Group 236" transform="translate(-497 -248)"><circle cx="83.979" cy="83.979" r="83.979" fill="#ff6584" data-name="Ellipse 613" transform="translate(650.926 248)"/><path fill="#090814" d="M1423 284.918v220.88c0 180.055-145.962 326.01-326.009 326H497v-220.88c0-118.03 62.73-221.42 156.68-278.63a323.578 323.578 0 0 1 50.88-25.18 320.085 320.085 0 0 1 31.76-10.53c.21-.07.43-.13.64-.18q4.77-1.3 9.6-2.46c.18-.05.35-.09.53-.13a326.114 326.114 0 0 1 60.47-8.53c2.41-.11 4.82-.2 7.25-.25.87-.03 1.75-.05 2.64-.05q2.76-.06 5.55-.06Z" data-name="Path 3715"/><path fill="#CCD6F7" d="M1423 284.918v220.88c0 180.055-145.962 326.01-326.009 326H497v-220.88c0-118.03 62.73-221.42 156.68-278.63a323.578 323.578 0 0 1 50.88-25.18 320.085 320.085 0 0 1 31.76-10.53c.21-.07.43-.13.64-.18q4.77-1.3 9.6-2.46c.18-.05.35-.09.53-.13a326.114 326.114 0 0 1 60.47-8.53c2.41-.11 4.82-.2 7.25-.25.87-.03 1.75-.05 2.64-.05q2.76-.06 5.55-.06Z" data-name="Path 3768" opacity=".199"/><path fill="#d6d6e3" d="M919.01 713.735c-232.58 0-421.209 53.34-422 119.223h844c-.791-65.883-189.42-119.223-422-119.223Z" data-name="Path 3716"/><g data-name="Group 232" opacity=".1" transform="translate(497 101.347)"><ellipse cx="80" cy="22.222" data-name="Ellipse 614" rx="80" ry="22.222" transform="translate(272 669.778)"/></g><g data-name="Group 233" opacity=".1" transform="translate(497 101.347)"><ellipse cx="80" cy="22.222" data-name="Ellipse 615" rx="80" ry="22.222" transform="translate(445 629.778)"/></g><g data-name="Group 234" opacity=".1" transform="translate(497 101.347)"><ellipse cx="72" cy="20" data-name="Ellipse 616" rx="72" ry="20" transform="translate(280 672)"/></g><g data-name="Group 235" opacity=".1" transform="translate(497 101.347)"><ellipse cx="72" cy="20" data-name="Ellipse 617" rx="72" ry="20" transform="translate(453 632)"/></g><circle cx="7" cy="7" r="7" fill="#f2f2f2" data-name="Ellipse 618" transform="translate(628 366.958)"/><circle cx="7" cy="7" r="7" fill="#f2f2f2" data-name="Ellipse 619" transform="translate(1230 640.958)"/><circle cx="7" cy="7" r="7" fill="#f2f2f2" data-name="Ellipse 620" transform="translate(900 415.958)"/><circle cx="4" cy="4" r="4" fill="#CCD6F7" data-name="Ellipse 621" transform="translate(1250 376.958)"/><circle cx="4" cy="4" r="4" fill="#CCD6F7" data-name="Ellipse 622" transform="translate(647 576.958)"/><path fill="#f2f2f2" d="M591 665.28h-1.822v-1.822h-.356v1.822H587v.356h1.822v1.822h.356v-1.822H591Z" data-name="Path 3717"/><path fill="#f2f2f2" d="M1176 517.28h-1.822v-1.822h-.356v1.822H1172v.356h1.822v1.822h.356v-1.822H1176Z" data-name="Path 3718"/><path fill="#f2f2f2" d="M1327 487.28h-1.822v-1.822h-.356v1.822H1323v.356h1.822v1.822h.356v-1.822H1327Z" data-name="Path 3719"/><path fill="#f2f2f2" d="M1002 567.28h-1.822v-1.822h-.356v1.822H998v.356h1.822v1.822h.356v-1.822H1002Z" data-name="Path 3720"/><path fill="#f2f2f2" d="M1283 577.28h-1.822v-1.822h-.356v1.822H1279v.356h1.822v1.822h.356v-1.822H1283Z" data-name="Path 3721"/><path fill="#f2f2f2" d="M944 620.28h-1.822v-1.822h-.356v1.822H940v.356h1.822v1.822h.356v-1.822H944Z" data-name="Path 3722"/><path fill="#f2f2f2" d="M1072 622.28h-1.822v-1.822h-.356v1.822H1068v.356h1.822v1.822h.356v-1.822H1072Z" data-name="Path 3723"/><path fill="#f2f2f2" d="M593 452.28h-1.822v-1.822h-.356v1.822H589v.356h1.822v1.822h.356v-1.822H593Z" data-name="Path 3724"/><path fill="#d6d6e3" d="m1108.748 469.004-26.448 60.938 5.174 8.623-1.725 2.874 12.073 6.324v-3.449l4.6-1.15 19.546-35.643Z" data-name="Path 3725"/><path fill="#d6d6e3" d="M1088.052 540.865s-19.546 30.469 2.3 35.068 4.024-32.194 4.024-32.194Z" data-name="Path 3726"/><path fill="#f2f2f2" d="m1116.221 527.067-6.9 22.421-2.874 28.744-5.174 10.348 5.749 46.566 9.2 9.2 4.024 45.991v20.7l10.923 18.971-14.069 19.958a6.361 6.361 0 0 0 4.99 10.031c3.105.082 7.2-.8 12.525-3.55 16.672-8.623 16.1-16.672 16.1-16.672s10.348 0 10.923-8.048-6.324-65.537-6.324-65.537l-6.324-24.72v-67.262h2.3l1.15 57.489 5.174 21.271.575 9.2 7.474 91.982s33.343 9.2 35.068 1.725-12.647-12.073-12.647-12.073l8.623-16.672v-32.196l-2.874-6.9 3.449-38.02v-17.743l4.6-5.749v-45.99l-5.749-17.821-1.725-14.947-9.2-23s-41.967-13.793-68.987 2.303Z" data-name="Path 3727"/><path fill="#CCD6F7" d="M1190.956 397.143a43.691 43.691 0 1 1-78.759-26.06l.012-.012a43.687 43.687 0 0 1 78.748 26.071Z" data-name="Path 3728"/><path fill="#f2f2f2" d="m1198.192 382.521-15.859 14.622c-26.784-69.527-69.389-26.818-70.125-26.071a43.691 43.691 0 0 1 38.4-17.492c14.955 1.148 40.571 15.68 47.579 28.941Z" data-name="Path 3730"/><path fill="#f2f2f2" d="m1179.908 368.111 5.989 20.79s-12.433 37.263-70.086 38.562l-1.89 5.323-6.324 1.725-2.874 12.073 8.048 76.46s-3.449 7.474 2.3 6.9c0 0 37.942-12.647 70.711-1.15 0 0 6.9 2.874 5.174-3.449 0 0 23-14.372 21.271-29.319s1.725-84.508 1.725-84.508 3.449-20.121-6.9-24.72c.001-.003-15.197-21.275-27.144-18.687Z" data-name="Path 3731"/><path fill="#d6d6e3" d="M1167.3 513.376s-36.018 3.617-26.048 23.591 27.725-16.851 27.725-16.851Z" data-name="Path 3732"/><path fill="#d6d6e3" d="M1185.782 424.158s-6.324 7.474-4.024 19.546 10.923 39.092 10.923 39.092l-30.469 28.169 9.2 12.647 41.388-21.265 9.2-5.749a238.506 238.506 0 0 0-16.892-67.64l-1.5-3.645s-10.927-4.599-17.826-1.155Z" data-name="Path 3733"/><path fill="#f2f2f2" d="M978 436.28h-1.822v-1.822h-.356v1.822H974v.356h1.822v1.822h.356v-1.822H978Z" data-name="Path 3734"/><path fill="#f2f2f2" d="M1142 380.28h-1.822v-1.822h-.356v1.822H1138v.356h1.822v1.822h.356v-1.822H1142Z" data-name="Path 3735"/><path fill="#f2f2f2" d="M1124 397.28h-1.822v-1.822h-.356v1.822H1120v.356h1.822v1.822h.356v-1.822H1124Z" data-name="Path 3736"/><circle cx="4" cy="4" r="4" fill="#f2f2f2" data-name="Ellipse 625" transform="translate(1049 346.958)"/><path fill="#CCD6F7" d="M1343.01 284.918h-2a82.085 82.085 0 0 0 81.99 81.54v-2a80.079 80.079 0 0 1-79.99-79.54Z" data-name="Path 3740"/><path fill="#CCD6F7" d="M1306.01 284.918h-2A119.115 119.115 0 0 0 1423 403.458v-2a117.123 117.123 0 0 1-116.99-116.54Z" data-name="Path 3741"/><path fill="#CCD6F7" d="M1268 284.918h-2c.25 86.36 70.58 156.54 157 156.54v-2c-85.32 0-154.75-69.28-155-154.54Z" data-name="Path 3742"/><circle cx="7" cy="7" r="7" fill="#f2f2f2" data-name="Ellipse 658" transform="translate(729 587.958)"/><path fill="#f2f2f2" d="M831 450.636h-1.822v1.822h-.356v-1.822H827v-.356h1.822v-1.822h.356v1.822H831Z" data-name="Path 3765"/><path fill="#f2f2f2" d="M773 397.636h-1.822v1.822h-.356v-1.822H769v-.356h1.822v-1.822h.356v1.822H773Z" data-name="Path 3766"/><path fill="#f2f2f2" d="M807 581.636h-1.822v1.822h-.356v-1.822H803v-.356h1.822v-1.822h.356v1.822H807Z" data-name="Path 3767"/></g></svg>