<svg xmlns="http://www.w3.org/2000/svg" width="885.598" height="875.62" viewBox="0 0 885.598 875.62"><path fill="#090814" d="M885.598 437.81c0 241.794-196.017 437.81-437.81 437.81-12.771 0-25.4-.54-37.89-1.62a435.631 435.631 0 0 1-101.341-20.986c-99.312-33.288-182.742-101.213-235.937-189.42C32.854 597.663 9.977 520.406 9.977 437.81 9.977 196.017 205.994 0 447.787 0s437.81 196.017 437.81 437.81Z"/><path fill="#CCD6F7" d="M885.598 437.81c0 241.794-196.017 437.81-437.81 437.81-12.771 0-25.4-.54-37.89-1.62a435.631 435.631 0 0 1-101.341-20.986c-99.312-33.288-182.742-101.213-235.937-189.42C32.854 597.663 9.977 520.406 9.977 437.81 9.977 196.017 205.994 0 447.787 0s437.81 196.017 437.81 437.81Z" opacity=".2"/><circle cx="440.745" cy="483.587" r="142.611" fill="#CCD6F7"/><path fill="#fff" d="M434.046 398c12.124-.553 25.178 10.43 23.21 23.208-1.477 9.59-19.251 21.278-34.684 11.736-14.806-9.155-10.73-33.934 11.474-34.945ZM373.546 412.603c5.294-.48 7.701 5.713 4.954 10.692-1.766 3.201-17.015 11.799-18.776 4.694-1.416-5.717 9.098-14.959 13.822-15.386ZM520.104 418.34c13.71-3.354 25.37 34.192 5.215 22.949-11.124-6.206-10.367-21.689-5.215-22.95Z"/><path fill="#ff6363" d="M87.153 408.177c2.896-.452 6.885 10.079 6.42 11.707-1.462 5.12-61.968 29.809-71.753 30.211 7.05-4.744 52.908-37.052 56.27-37.386 9.562-.953 4.61 9.039 6.797 9.818 5.746 2.05 4.672-9.54 2.643-10.951-2.69-1.87-14.547 3.053-.377-3.4Z"/><path fill="#d6d6e3" d="M303.543 279.778c-6.83 2.333-40.915 18.203-49.471 22.659-24.606 12.811-51.708 31.473-76.285 45.317-21.052 3.492-82.567-.693-86.858 0-1.75.282-18.619 8.639-18.504 10.196 14.631 6.735 28.433 15.602 43.051 23.036 5.752 2.926 11.357.476-4.154 14.35-5.252 4.7-14.204 9.588-15.483 10.575-1.053.811-2.671.461-2.266 2.266 8.825 9.626 5.473 18.257 16.239 16.616 4.97-.757 7.478-8.834 13.972.755 3.173-9.534 6.429-19.192 8.308-29.078 46.52-31.705 34.528-19.561 18.127 22.28 30.16-14.64 25.018-24.807 28.324-28.7l126.888-77.795c18.836-13.338 25.33-23.994 39.653-41.163-13.852 2.478-28.257 4.148-41.541 8.686Zm-108.006 63.444c10.692-6.77 21.642-13.108 32.477-19.638 19.305 19.083-28.77 44.648-32.477 19.638Z"/><path fill="#d6d6e3" d="m150.22 418.75-19.26 34.744C89.85 474.632 50.49 498.976 10.113 521.47l-1.888-1.133c32.167-20.637 67.685-36.309 99.32-57.78.576-.39 1.167.37 1.511.756 3.788-2.72 3.976-5.722 4.154-6.042 2.225-3.992 3.008-7.906 4.532-12.085 2.336-6.406 3.89-13.168 6.042-19.638 3.173-9.534 6.429-19.192 8.308-29.078 46.52-31.705 34.528-19.561 18.127 22.28Z"/><path fill="#090814" d="M195.537 343.222c10.692-6.77 21.642-13.108 32.477-19.638 19.305 19.083-28.77 44.648-32.477 19.638Z"/><path fill="#fffeff" d="M0 399.328v-2.265c12.477-5.861 56.75-33.693 61.556-35.499 1.442-.542 3.83-1.803 4.154.378.556 3.739-59.269 32.323-65.71 37.386ZM201.285 292.078c3.288-.288-6.753 5.823-12.085 9.063-22.235 13.51-45.506 25.713-68.354 38.142 25.405-17.982 53.883-31.025 80.439-47.205Z"/><path fill="#c8c8c8" d="M168.807 479.389c2.546-.079-1.845 2.746-2.266 3.021-24.59 16.058-51.991 28.741-77.417 43.43 25.21-17.645 53.22-30.82 79.683-46.451Z"/><path fill="#fffeff" d="M233.762 385.733c.475-.071.986-.087 1.133.378-25.804 15.81-52.39 31.168-79.305 45.317 8.892-6.324 73.692-45.02 78.172-45.695ZM669.748 197.639c-19.036 20.122-42.704 40.8-67.281 53.72-45.472 23.905-69.455 13.931-33.902-31.032-12.597-35.826 13.412-71.33 51.635-69.107-4.937.56-5.939 2.886-9.91 4.694-13.85 6.307-22.927 4.894-32.858 19.559-1.491 2.202-4.126 6.512-4.173 9.127-3.023 2.434-2.985 7.934-3.129 11.474-.699 17.146 6.154 32.875 17.472 45.376 24.146-6.705 65.786-40.778 77.452-62.066 7.83-14.288 3.991-21.182-12.518-16.168-.314-.302-3.43.029-2.086-3.13 3.423-.25 16.184-7.34 24.253-2.607 9.757 5.724-2.458 22.177-7.041 28.164-15.495 20.24-52.64 50.877-76.148 60.501-9.556 3.912-32.13 12.13-28.164-7.041 1.266-6.122 9.752-15.67 5.998-15.908-1.283-.08-11.366 17.746-11.735 22.688-1.425 19.034 26.67 6.77 35.466 2.869 26.989-11.97 57.022-36.569 75.626-59.458 24.445-30.076 21.57-47.429-20.341-30.25h-2.608c.003-.288-1.413-.987-1.565-1.043 56.743-25.67 60.488.455 25.557 39.638ZM603.915 471.717C545.8 533.15 473.542 596.28 398.51 635.724c-138.825 72.98-212.042 42.53-103.5-94.742-38.46-109.375 29.629-206.796 146.323-200.006-15.073 1.707-6.815-2.164-18.939 3.357-42.281 19.253-69.995 14.94-100.315 59.711-4.553 6.723-12.595 19.882-12.738 27.866-5.338 7.66-9.114 24.221-9.554 35.03-2.134 52.346 18.789 100.367 53.342 138.53 73.715-20.47 200.84-124.493 236.457-189.483 23.904-43.621 12.186-64.669-38.216-49.362-.96-.924-10.472.088-6.369-9.554 10.45-.764 49.407-22.413 74.042-7.961 29.787 17.475-7.504 67.707-21.496 85.984-47.305 61.794-160.709 155.324-232.476 184.707-29.174 11.945-98.09 37.03-85.984-21.496 3.866-18.69 29.772-47.839 18.311-48.565-3.917-.249-34.697 54.175-35.826 69.265-4.348 58.109 81.423 20.667 108.276 8.757 82.397-36.544 174.086-111.642 230.884-181.522 74.632-91.822 65.853-144.798-62.1-92.353h-7.962c.008-.878-4.312-3.011-4.776-3.185 173.234-78.367 184.666 1.39 78.022 121.015Z"/><path fill="#d6d6e3" d="M644.191 158c.152.057 1.568.756 1.565 1.044-17.145 24.517-45.207 39.325-75.626 37.03.144-3.54.106-9.04 3.13-11.474 4.057-3.266 8.59.073 19.558-7.823 5.556-4 14.909-14.192 17.472-20.863 3.971-1.808 4.973-4.134 9.91-4.694 14 .815 15.626 3.656 23.991 6.78ZM602.467 251.36c24.577-12.92 48.245-33.599 67.28-53.721.892 34.998-33.163 63.936-67.28 53.72Z"/><path fill="#d6d6e3" d="M648.364 159.044c.32.66 1.413 1.092 2.086 1.043-1.344 3.158 1.772 2.827 2.086 3.13 4.947 4.754 9.284 10.112 12.518 16.167-11.666 21.288-53.306 55.361-77.452 62.066-11.318-12.5-18.17-28.23-17.472-45.376 30.419 2.295 58.48-12.513 75.626-37.03h2.608ZM610.29 155.914c-2.563 6.67-11.916 16.863-17.472 20.863-10.968 7.896-15.501 4.557-19.559 7.823.047-2.615 2.682-6.925 4.173-9.127 9.931-14.665 19.009-13.252 32.858-19.559Z"/><path fill="#f0f0f0" d="m438.942 191.897 1.303 10.17c2.254 3.55 19.935 1.094.261 3.912l-2.086 10.431-1.304-9.648c-11.89-4.408-10.985-.372 0-4.694l1.826-10.17ZM345.041 147.294l1.304 10.17c2.254 3.551 19.935 1.094.26 3.913l-2.085 10.43-1.304-9.648c-11.891-4.408-10.985-.371 0-4.694l1.825-10.17ZM664.302 562.803l1.304 10.17c2.254 3.551 19.935 1.094.261 3.912l-2.086 10.432-1.304-9.65c-11.891-4.407-10.985-.37 0-4.693l1.825-10.17ZM224.145 508.81l1.303 10.171c2.254 3.55 19.935 1.093.261 3.912l-2.086 10.431-1.304-9.649c-11.89-4.407-10.985-.371 0-4.694l1.826-10.17ZM741.58 328.053l2.604 20.308c4.5 7.089 39.805 2.182.52 7.81l-4.165 20.83-2.604-19.267c-23.744-8.8-21.934-.741 0-9.373l3.645-20.308ZM495.092 717.739l2.603 20.308c4.501 7.09 39.806 2.183.521 7.811l-4.166 20.83-2.603-19.268c-23.744-8.8-21.934-.741 0-9.373l3.645-20.308Z"/></svg>