<svg xmlns="http://www.w3.org/2000/svg" width="856" height="631" viewBox="0 0 856 631" fill="none"><g clip-path="url(#a)"><path fill="#1B393C" d="M763.402 337.591c-3.73 43.08-22.51 84.71-49.3 119.14a266.92 266.92 0 0 1-3.4 4.28 280.5 280.5 0 0 1-7.94 9.36 292.242 292.242 0 0 1-10.25 11.05 277.831 277.831 0 0 1-8.78 8.69 307.424 307.424 0 0 1-7.01 6.5c-28.43 25.69-61.09 46.89-94.74 65.43-65.67 36.17-137.65 63.57-212.52 67.56-74.86 3.98-153.01-17.46-207.91-68.52-73.99-68.81-94.64-183.58-64.6-280.05 19.98-64.18 60.76-122.24 116.26-160.16 55.02-37.59 124.43-54.51 190.12-43.45 52.44-31.87 121.09-32.48 178.1-8.89 30.42 12.59 57.72 31.31 81.67 53.93a339.333 339.333 0 0 1 30.72 33.23c.97 1.19 1.93 2.39 2.88 3.6 3.98 5.03 7.83 10.163 11.55 15.4a400.186 400.186 0 0 1 15.21 23.03c1.32 2.16 2.63 4.33 3.91 6.52.86 1.47 1.73 2.95 2.58 4.44.019.03.033.064.04.1 13.31 23.41 24.19 48.39 29.86 74.5 1 4.62 1.84 9.26 2.49 13.94v.01c.57 3.97 1 7.96 1.29 11.97.684 9.454.607 18.948-.23 28.39Z"/><path fill="#F0F0F0" d="M568.044 402.717 419.582 279.039 563.81 407.671a3.446 3.446 0 0 0 5.576.479 3.442 3.442 0 0 0-1.342-5.433Z" opacity=".3"/><path fill="#F2F2F2" d="M227.582 339.781c49.153 0 89-39.847 89-89 0-49.154-39.847-89-89-89s-89 39.846-89 89c0 49.153 39.847 89 89 89Z"/><path fill="#fff" d="M306.582 244.781a80.997 80.997 0 0 1-50.001 74.836 80.998 80.998 0 0 1-30.999 6.164 81.602 81.602 0 0 1-27.8-4.9 81.05 81.05 0 0 1-52.62-65.611 81.05 81.05 0 0 1 33.908-76.968 81.065 81.065 0 0 1 83.929-5.453 81.058 81.058 0 0 1 43.583 71.932Z"/><path fill="#E4E4E4" d="M211.582 242.781c13.807 0 25-11.193 25-25s-11.193-25-25-25-25 11.193-25 25 11.193 25 25 25Z"/><path fill="#F2F2F2" d="M303.422 222.311a25.004 25.004 0 0 1-31.591-8.587 25.003 25.003 0 0 1 3.991-32.493 81.05 81.05 0 0 1 27.6 41.08Z"/><path fill="#E4E4E4" d="M252.582 280.781a9 9 0 1 0 0-18 9 9 0 0 0 0 18Z"/><path fill="#F2F2F2" d="M215.582 322.781a9.064 9.064 0 0 1-.31 2.34 79.556 79.556 0 0 1-17.49-4.24 8.998 8.998 0 0 1 15.492-4.117 8.997 8.997 0 0 1 2.308 6.017ZM162.582 240.781a18.002 18.002 0 0 1-16.8 17.96 81.549 81.549 0 0 1 1.76-35.71 17.997 17.997 0 0 1 15.04 17.75Z"/><path fill="#CCD6F7" d="M606.456 212.185a3.702 3.702 0 1 0 .001-7.405 3.702 3.702 0 0 0-.001 7.405Z"/><path fill="#F0F0F0" d="M572.302 122.112a2.163 2.163 0 1 0 0-4.327 2.163 2.163 0 0 0 0 4.327ZM225.302 546.112a2.163 2.163 0 1 0 0-4.327 2.163 2.163 0 0 0 0 4.327ZM584.581 333.757a2.163 2.163 0 1 0 .001-4.327 2.163 2.163 0 0 0-.001 4.327Z"/><path fill="#CCD6F7" d="M305.457 354.185a3.702 3.702 0 1 0 0-7.404 3.702 3.702 0 0 0 0 7.404ZM171.457 433.966c9.655 0 17.483-7.827 17.483-17.483S181.112 399 171.457 399c-9.656 0-17.483 7.827-17.483 17.483s7.827 17.483 17.483 17.483Z"/><path fill="#F0F0F0" d="M267.302 438.112a2.163 2.163 0 1 0 0-4.327 2.163 2.163 0 0 0 0 4.327ZM487.302 100.112a2.163 2.163 0 1 0 0-4.326 2.163 2.163 0 0 0 0 4.326ZM358.302 561.112a2.163 2.163 0 1 0 0-4.327 2.163 2.163 0 0 0 0 4.327ZM326.302 120.112a2.163 2.163 0 1 0 0-4.327 2.163 2.163 0 0 0 0 4.327ZM382.302 225.112a2.163 2.163 0 1 0 0-4.327 2.163 2.163 0 0 0 0 4.327ZM296.581 482.757a2.162 2.162 0 1 0 .001-4.325 2.162 2.162 0 0 0-.001 4.325ZM549.581 496.757a2.163 2.163 0 1 0 .001-4.327 2.163 2.163 0 0 0-.001 4.327ZM437.581 370.757a2.162 2.162 0 1 0 .001-4.325 2.162 2.162 0 0 0-.001 4.325ZM494.581 224.757a2.162 2.162 0 1 0 .001-4.325 2.162 2.162 0 0 0-.001 4.325Z"/><path fill="#FF6584" d="M598.212 296.944a4.29 4.29 0 1 0 0-8.579 4.29 4.29 0 0 0 0 8.579ZM424.212 154.943a4.288 4.288 0 1 0 .001-8.577 4.288 4.288 0 0 0-.001 8.577ZM424.212 449.944a4.29 4.29 0 1 0 0-8.579 4.29 4.29 0 0 0 0 8.579Z"/><path fill="#CCD6F7" d="M691.422 470.371a7.693 7.693 0 0 0-7.39 5.58 7.415 7.415 0 0 0-.3 2.12v12.04c2.99-2.83 5.917-5.727 8.78-8.69 3.51-3.6 6.927-7.284 10.25-11.05h-11.34Z"/><path fill="#CCD6F7" d="M718.651 532.931c-12.912 0-27.064-.488-42.457-1.464-79.613-5.055-182.737-22.633-290.376-49.492-107.637-26.859-206.93-59.794-279.585-92.734-35.393-16.047-62.556-31.237-80.735-45.148C6.25 329.366-2.168 316.529.474 305.94c5.148-20.628 50.73-25.142 88.064-25.295l.012 3c-51.268.21-81.513 8.387-85.165 23.022-4.652 18.64 33.287 47.741 104.087 79.841 72.495 32.868 171.605 65.74 279.073 92.557 107.467 26.816 210.401 44.363 289.84 49.408 77.579 4.928 124.743-2.937 129.394-21.578 3.862-15.477-21.598-38.275-71.689-64.198l1.379-2.664c36.397 18.836 78.645 45.851 73.222 67.589-2.643 10.588-16.106 17.964-40.016 21.922-13.629 2.256-30.37 3.387-50.024 3.387Z"/><path fill="#fff" d="M714.582 309.281c55.505 0 100.5-44.996 100.5-100.5 0-55.505-44.995-100.5-100.5-100.5s-100.5 44.995-100.5 100.5c0 55.504 44.995 100.5 100.5 100.5Z"/><path fill="#2F2E41" d="M714.582 106.781a101.998 101.998 0 0 0-100.04 121.899 102.003 102.003 0 0 0 80.141 80.141 102 102 0 0 0 121.899-100.04 101.637 101.637 0 0 0-102-102Zm0 201a99 99 0 1 1 99-99 98.613 98.613 0 0 1-61.055 91.567 98.632 98.632 0 0 1-37.945 7.433Z"/><path fill="#2F2E41" d="M626.387 232.852a2.004 2.004 0 0 1-1.957-1.598 97.662 97.662 0 0 1 22.341-83.135 2 2 0 0 1 2.986 2.661 93.586 93.586 0 0 0-21.409 79.668 2.01 2.01 0 0 1-.41 1.667 2.006 2.006 0 0 1-1.551.737Z"/><path fill="#CCD6F7" d="M714.519 302.151c35.279 0 63.877-28.599 63.877-63.877 0-35.279-28.598-63.877-63.877-63.877-35.278 0-63.877 28.598-63.877 63.877 0 35.278 28.599 63.877 63.877 63.877Z"/><path fill="#2F2E41" d="M694.218 262.39c-4.141-.115-9.294-.259-13.264-3.159a10.186 10.186 0 0 1-4.008-7.606 6.852 6.852 0 0 1 2.33-5.628c2.073-1.752 5.101-2.163 8.364-1.204l-3.38-24.706 2.481-.34 3.975 29.045-2.073-.951c-2.402-1.102-5.701-1.663-7.75.069a4.413 4.413 0 0 0-1.444 3.627 7.707 7.707 0 0 0 2.983 5.671c3.089 2.257 7.197 2.548 11.856 2.678l-.07 2.504ZM671.986 222.218h-13.491v2.505h13.491v-2.505ZM714.571 222.218H701.08v2.505h13.491v-2.505ZM717.202 317.941h-57.9a8.149 8.149 0 0 0-8.14 8.14v128.33a47.677 47.677 0 0 0 25.56 42.2 267.83 267.83 0 0 0 7.01-6.5c2.99-2.83 5.917-5.727 8.78-8.69 3.51-3.6 6.927-7.284 10.25-11.05a264.72 264.72 0 0 0 7.94-9.36c1.15-1.41 2.283-2.837 3.4-4.28 26.79-34.43 45.57-76.06 49.3-119.14a64.05 64.05 0 0 0-46.2-19.65Z"/><path fill="#CCD6F7" d="M719.312 344.721a14.61 14.61 0 0 0-10.43-4.17 14.464 14.464 0 0 0-9.16 3.36c-.411.333-.802.69-1.17 1.07l-47.39 48.6-34.37 35.25a6.796 6.796 0 0 0-1.28 1.8 7.297 7.297 0 0 0-.77 3.32 7.171 7.171 0 0 0 2.18 5.07l1.35 1.32 9.8 9.55.01-.01a7.292 7.292 0 0 0 4.66 1.63 7.155 7.155 0 0 0 5.07-2.18l1.59-1.62 11.38-11.67.38-.39 68.41-70.16a14.69 14.69 0 0 0-.26-20.77Z"/><path fill="#2F2E41" d="M718.831 208.473c2.113-4.466-.053-9.237-3.763-12.091-4.676-3.595-10.723-3-16.041-1.299-5.822 1.864-11.513 5.216-17.803 5.024a11.125 11.125 0 0 1-10.244-7.278c-3.369-8.639.435-18.295 6.299-24.847a34.277 34.277 0 0 1 26.544-11.586 34.658 34.658 0 0 1 28.068 16.903 1.542 1.542 0 0 0 2.053.538 36.879 36.879 0 0 1 28.393-.714 36.283 36.283 0 0 1 22.581 34.492c-.05 1.931 2.95 1.93 3 0a39.897 39.897 0 0 0-10.599-27.813 38.724 38.724 0 0 0-27.567-12.168 39.34 39.34 0 0 0-17.323 3.613l2.053.538a37.707 37.707 0 0 0-10.661-11.538 37.711 37.711 0 0 0-14.438-6.19 36.483 36.483 0 0 0-29.424 7.327c-7.702 6.028-13.538 15.381-13.175 25.411.157 4.341 1.447 8.796 4.46 12.031 3.86 4.143 9.623 4.859 14.947 3.798 7.075-1.411 13.535-6.065 20.911-5.921a10.2 10.2 0 0 1 7.642 3.445c1.624 1.833 2.604 4.47 1.497 6.811-.821 1.736 1.765 3.26 2.59 1.514Z"/><path fill="#CCD6F7" d="M240.064 569.356c-35.599.001-68.694-1.221-98.322-3.686-38.727-3.222-69.415-8.403-91.21-15.396-23.077-7.405-35.32-16.667-36.389-27.528-2.083-21.159 39.334-40.725 74.445-53.413l1.02 2.822c-48.217 17.424-73.957 35.286-72.48 50.298 1.882 19.119 47.393 33.781 124.862 40.227 79.326 6.601 183.718 4.262 293.948-6.59 110.23-10.848 213.075-28.906 289.591-50.845 74.726-21.426 116.505-44.68 114.623-63.799-1.563-15.874-33.203-28.793-89.092-36.379l.403-2.973c40.61 5.512 89.48 16.762 91.674 39.058 1.07 10.861-9.133 22.332-30.322 34.094-20.015 11.109-49.104 22.172-86.459 32.882-76.685 21.989-179.72 40.081-290.125 50.949-69.259 6.816-136.245 10.279-196.167 10.279Z"/><path fill="#CCD6F7" d="M838.456 451.966c9.656 0 17.484-7.827 17.484-17.483S848.112 417 838.456 417c-9.655 0-17.483 7.827-17.483 17.483s7.828 17.483 17.483 17.483Z"/><path fill="#E6E6E6" d="M331.457 34.966c9.655 0 17.483-7.827 17.483-17.483S341.112 0 331.457 0c-9.656 0-17.483 7.827-17.483 17.483s7.827 17.483 17.483 17.483ZM19.456 450.966c9.656 0 17.484-7.827 17.484-17.483S29.112 416 19.456 416c-9.655 0-17.483 7.827-17.483 17.483s7.828 17.483 17.483 17.483Z"/><path fill="#FF6584" d="M127.456 119.185c5.911 0 10.703-4.791 10.703-10.702s-4.792-10.702-10.703-10.702c-5.91 0-10.702 4.791-10.702 10.702s4.792 10.702 10.702 10.702ZM77.457 525.185c5.91 0 10.702-4.791 10.702-10.702s-4.792-10.702-10.703-10.702c-5.91 0-10.702 4.791-10.702 10.702s4.792 10.702 10.703 10.702ZM807.456 350.185c5.911 0 10.703-4.791 10.703-10.702s-4.792-10.702-10.703-10.702c-5.91 0-10.702 4.791-10.702 10.702s4.792 10.702 10.702 10.702Z"/><path fill="#E6E6E6" d="M645.456 615.966c9.656 0 17.484-7.827 17.484-17.483S655.112 581 645.456 581c-9.655 0-17.483 7.827-17.483 17.483s7.828 17.483 17.483 17.483Z"/></g><defs><clipPath id="a"><path fill="#fff" d="M0 0h855.94v630.066H0z"/></clipPath></defs></svg>