<svg xmlns="http://www.w3.org/2000/svg" width="983" height="764" fill="none" viewBox="0 0 983 764"><mask id="a" width="983" height="764" x="0" y="0" maskUnits="userSpaceOnUse" style="mask-type:luminance"><path fill="#fff" d="M0 0h982.487v763.014H0V0Z"/></mask><g mask="url(#a)"><path fill="#E6E6E6" d="M559.433 373.091c22.108 0 40.03-17.922 40.03-40.03s-17.922-40.03-40.03-40.03-40.03 17.922-40.03 40.03 17.922 40.03 40.03 40.03Z"/><path fill="#3F3D56" d="m657.539 384.502-41.832-41.832a44.325 44.325 0 0 0-1.442-50.029 44.293 44.293 0 0 0-12.985-11.897 44.452 44.452 0 0 0-31.841-5.362 44.452 44.452 0 0 0-27.072 17.6 44.295 44.295 0 0 0-4.457 43.637 44.298 44.298 0 0 0 35.267 26.082 44.306 44.306 0 0 0 29.223-6.724l41.832 41.832a9.408 9.408 0 0 0 16.059-6.655 9.406 9.406 0 0 0-2.752-6.652Zm-56.701-43.394a31.68 31.68 0 0 1-40.007 3.94 31.686 31.686 0 0 1 2.667-54.287 31.688 31.688 0 0 1 39.428 7.843 31.685 31.685 0 0 1 7.192 20.1 31.607 31.607 0 0 1-9.28 22.404Z"/><path fill="#E6E6E6" d="M960.773 446.206c106.977 118.308-203.137 288.808-453.72 288.808-250.582 0-423.946-132.107-453.72-288.808-72.19-379.947 615.078-621.439 453.72-288.808-235.198 484.848 369.471 195.637 453.72 288.808Z"/><path fill="#303141" d="M912.773 474.206c106.977 118.308-203.137 288.808-453.72 288.808-250.582 0-423.946-132.107-453.72-288.808-72.19-379.947 615.078-621.439 453.72-288.808-235.198 484.848 369.47 195.637 453.72 288.808Z"/><path fill="#CCD6F7" d="M149.594 196.825c-75.067-3.305-133.271-19.498-132.507-36.864.459-10.412 21.704-18.784 58.287-22.97a.988.988 0 0 1 .764.191.987.987 0 0 1 .39.684 1.001 1.001 0 0 1-.927 1.112c-34.461 3.943-56.117 12.017-56.516 21.071-.691 15.704 59.115 31.631 130.597 34.778 71.482 3.148 132.456-7.461 133.148-23.165.4-9.092-20.597-19.066-54.798-26.029a1.009 1.009 0 0 1-.637-.427 1.015 1.015 0 0 1 .004-1.114 1.005 1.005 0 0 1 1.032-.419c36.301 7.391 56.857 17.624 56.397 28.077-.765 17.366-60.167 28.381-135.234 25.075Zm-66.671 2.909a76.986 76.986 0 0 0 133.036 5.522 1212.12 1212.12 0 0 1-133.036-5.522Z"/><path fill="#CCD6F7" d="M224.263 184.221a76.995 76.995 0 0 0-9.724-68.158 77.005 77.005 0 0 0-60.35-33.135 76.994 76.994 0 0 0-77.676 95.587 572.291 572.291 0 0 0 147.75 5.706Z"/><path fill="#fff" d="M168.834 132.601a9.005 9.005 0 0 0 8.315-5.557 9.005 9.005 0 0 0-1.951-9.808 8.998 8.998 0 0 0-12.729.001 9 9 0 0 0 6.365 15.364Zm-46.321 34.99c8.285 0 15-6.715 15-15 0-8.284-6.715-15-15-15-8.284 0-15 6.716-15 15 0 8.285 6.716 15 15 15Z"/><path fill="#CCD6F7" d="M348.905 152.898c5.522 0 10-4.477 10-10s-4.478-10-10-10c-5.523 0-10 4.477-10 10s4.477 10 10 10Z"/><path fill="#E6E6E6" d="M122.905 458.898a6.003 6.003 0 0 0 4.243-1.757 6.003 6.003 0 0 0 0-8.486 6.003 6.003 0 0 0-8.486 0 6.003 6.003 0 0 0 0 8.486 6.003 6.003 0 0 0 4.243 1.757Zm420 206a6.003 6.003 0 0 0 4.243-1.757 6.003 6.003 0 0 0 0-8.486 6.003 6.003 0 0 0-8.486 0 6.002 6.002 0 0 0 4.243 10.243Zm-391-322c.796 0 1.559-.316 2.121-.879a2.996 2.996 0 0 0 0-4.242 2.996 2.996 0 0 0-4.242 0 2.996 2.996 0 0 0 0 4.242 2.996 2.996 0 0 0 2.121.879Zm248 224c.796 0 1.559-.316 2.121-.879a2.996 2.996 0 0 0 0-4.242 2.996 2.996 0 0 0-4.242 0 2.996 2.996 0 0 0 0 4.242 2.996 2.996 0 0 0 2.121.879Zm451-29c.796 0 1.559-.316 2.121-.879a2.996 2.996 0 0 0 0-4.242 2.996 2.996 0 0 0-4.242 0 2.996 2.996 0 0 0 0 4.242 2.996 2.996 0 0 0 2.121.879Zm-141 89c.796 0 1.559-.316 2.121-.879a2.996 2.996 0 0 0 0-4.242 2.996 2.996 0 0 0-4.242 0 2.996 2.996 0 0 0 0 4.242 2.996 2.996 0 0 0 2.121.879Zm-147-108c.796 0 1.559-.316 2.121-.879a2.996 2.996 0 0 0 0-4.242 2.996 2.996 0 0 0-4.242 0 2.996 2.996 0 0 0 0 4.242 2.996 2.996 0 0 0 2.121.879Zm-190-296c.796 0 1.559-.316 2.121-.879a2.996 2.996 0 0 0 0-4.242 2.996 2.996 0 0 0-4.242 0 2.996 2.996 0 0 0 0 4.242 2.996 2.996 0 0 0 2.121.879Zm24-148a2.998 2.998 0 0 0 3-3 2.999 2.999 0 0 0-5.121-2.121 2.999 2.999 0 0 0 2.121 5.12Zm-14 623c.796 0 1.559-.316 2.121-.879a2.996 2.996 0 0 0 0-4.242 2.996 2.996 0 0 0-4.242 0 2.996 2.996 0 0 0 0 4.242 2.996 2.996 0 0 0 2.121.879Zm-148-63c.796 0 1.559-.316 2.121-.879a2.996 2.996 0 0 0 0-4.242 2.996 2.996 0 0 0-4.242 0 2.996 2.996 0 0 0 0 4.242 2.996 2.996 0 0 0 2.121.879Zm469-108c.796 0 1.559-.316 2.121-.879a2.996 2.996 0 0 0 0-4.242 2.996 2.996 0 0 0-4.242 0 2.996 2.996 0 0 0 0 4.242 2.996 2.996 0 0 0 2.121.879Z"/><path fill="#fff" d="M148.374 233.799a9 9 0 1 0-.002-18.001 9 9 0 0 0 .002 18.001Zm203.531 129.099c0 26.881-41.56 89.516-53.705 107.247a3.99 3.99 0 0 1-6.591 0c-12.145-17.731-53.704-80.366-53.704-107.247a56.99 56.99 0 0 1 16.695-40.305 57.003 57.003 0 0 1 80.61 0 57.012 57.012 0 0 1 16.695 40.305Z"/><path fill="#CCD6F7" d="M294.905 387.898c16.016 0 29-12.984 29-29s-12.984-29-29-29-29 12.984-29 29 12.984 29 29 29Z"/><path fill="#fff" d="M294.405 502.898c18.501 0 33.5-2.91 33.5-6.5s-14.999-6.5-33.5-6.5c-18.502 0-33.5 2.91-33.5 6.5s14.998 6.5 33.5 6.5Z"/><path fill="#FFB8B8" d="M816.853 317.92a10.48 10.48 0 0 0-.641 1.528l-47.783 13.277-8.611-8.427-14.415 11.333 13.794 16.399a7.997 7.997 0 0 0 9.352 2.169l51.617-22.784a10.496 10.496 0 0 0 15.123-3.453 10.498 10.498 0 1 0-18.436-10.042Z"/><path fill="#CCD6F7" d="m766.746 333.503-17.936 13.96a4.504 4.504 0 0 1-6.681-1.338l-11.147-19.727a12.496 12.496 0 0 1 11.467-20.044 12.496 12.496 0 0 1 8.302 4.75l16.338 15.594a4.492 4.492 0 0 1 1.387 3.481 4.5 4.5 0 0 1-1.73 3.324Z"/><path fill="#3F3D56" d="m821.435 311.317 18.188 8.183a3.151 3.151 0 0 1 1.58 4.164l-2.153 4.786a1.05 1.05 0 0 1 .526 1.388l-.861 1.914a1.052 1.052 0 0 1-1.388.527l-.861 1.914a1.057 1.057 0 0 1 .526 1.388l-.861 1.915a1.059 1.059 0 0 1-1.388.527l-11.628 25.846a3.154 3.154 0 0 1-4.164 1.58l-18.188-8.183a3.153 3.153 0 0 1-1.856-2.967c.012-.413.106-.82.276-1.197l18.088-40.205a3.148 3.148 0 0 1 4.164-1.58Z"/><path fill="#F2F2F2" d="m804.065 354.719 14.591 6.571a3.034 3.034 0 0 0 3.999-1.512l6.739-14.989 2.341-5.196 6.098-13.562a3.026 3.026 0 0 0-1.511-3.989l-4.587-2.068-10.014-4.503a3.02 3.02 0 0 0-3.989 1.522l-5.899 13.111-6.718 14.926-2.561 5.7a3.026 3.026 0 0 0 1.511 3.989Z"/><path fill="#FFB8B8" d="m773.577 540.443 12.26-.001 5.833-47.288-18.095.001.002 47.288Z"/><path fill="#2F2E41" d="m770.45 536.44 24.144-.001a15.396 15.396 0 0 1 14.218 9.498 15.375 15.375 0 0 1 1.17 5.889v.5l-39.531.001-.001-15.887Z"/><path fill="#FFB8B8" d="m805.577 537.443 12.26-.001 5.833-47.288-18.095.001.002 47.288Z"/><path fill="#2F2E41" d="m802.45 533.44 24.144-.001a15.396 15.396 0 0 1 14.218 9.498 15.375 15.375 0 0 1 1.17 5.889v.5l-39.531.001-.001-15.887Zm-83.865-103.962a39.425 39.425 0 0 0 14.177 19.286 39.415 39.415 0 0 0 22.723 7.524l.62.01c6.33.18 13.76-1.86 21.05-4.79 14.4-5.79 28.23-15.06 31.9-17.61l-6.22 59.79-2.52 24.24a4.513 4.513 0 0 0 4.48 4.97h15.53a4.502 4.502 0 0 0 4.36-3.36l25.64-97.65a19.027 19.027 0 0 0-19.71-23.83l-53.26 3.65 3.72-14.88-47.54-3.16-.14.1c-1.14.83-2.25 1.7-3.31 2.61-2.65 2.242-5 4.816-6.99 7.66a38.47 38.47 0 0 0-4.51 35.44Z"/><path fill="#2F2E41" d="M718.585 429.478a39.425 39.425 0 0 0 14.177 19.286 39.415 39.415 0 0 0 22.723 7.524 196.089 196.089 0 0 0 22.57-13.39l-.9 8.61-7.84 75.42a4.513 4.513 0 0 0 4.48 4.97h15.53a4.502 4.502 0 0 0 4.36-3.36l9.15-34.85 16.49-62.8a19.027 19.027 0 0 0-19.71-23.83l-53.26 3.65 3.72-14.88-26.98-1.79a38.47 38.47 0 0 0-4.51 35.44Z"/><path fill="#CCD6F7" d="m730.017 389.828-.358-.043L721.364 349c-.071-.354-6.852-35.533 13.937-53.925l.362-2.517a4.503 4.503 0 0 1 5.787-3.657l19.585 6.074a4.496 4.496 0 0 1 3.019 5.442l-1.904 7.242c2.64 3.1 33.714 40.512 22.89 69.335l-4.848 18.952-50.175-6.118Z"/><path fill="#FFB8B8" d="M811.338 357.997c-.469.295-.913.626-1.33.99l-47.897-12.858-3.131-11.634-18.176 2.431 3.542 21.135a8.002 8.002 0 0 0 6.952 6.622l56.032 6.619a10.504 10.504 0 0 0 11.832 5.862 10.482 10.482 0 0 0 4.255-2.041 10.498 10.498 0 0 0 3.951-8.306 10.49 10.49 0 0 0-4.112-8.227 10.49 10.49 0 0 0-11.918-.593Z"/><path fill="#CCD6F7" d="m760.266 345.944-22.542 2.903a4.496 4.496 0 0 1-5.074-4.548l.43-22.655a12.494 12.494 0 0 1 10.844-13.926 12.493 12.493 0 0 1 13.955 10.806l6.142 21.734a4.493 4.493 0 0 1-3.755 5.686Z"/><path fill="#FFB8B8" d="M753.921 283.365c13.564 0 24.561-10.997 24.561-24.561 0-13.565-10.997-24.561-24.561-24.561-13.565 0-24.561 10.996-24.561 24.561 0 13.564 10.996 24.561 24.561 24.561Z"/><path fill="#2F2E41" d="m752.628 260.855-3.075-5.6c-5.824 23.732 4.464 43.373 4.464 43.373l-39.932-18.601.38-6.599-3.951 4.484-5.678-3.129-.75-4.281-4.285 1.062 15.643-28.388c15.183-27.013 37.255-16.699 37.255-16.699 35.116-1.67 30.827 32.975 30.827 32.975l-30.898 1.403Z"/><path fill="#3F3D56" d="M473.04 443.887c5.663-3.63-1.224-24.477-15.382-46.562-14.158-22.085-30.225-37.046-35.888-33.415-5.663 3.63 1.223 24.476 15.381 46.561s30.226 37.046 35.889 33.416Z"/></g></svg>